Coordinates
version=1
nRows=7
nColumns=40
inDegrees=yes

Units are S.I. units (second, meters, Newtons, ...)
If the header above contains a line with 'inDegrees', this indicates whether rotational values are in degrees (yes) or radians (no).

endheader
time	pelvis_tilt	pelvis_list	pelvis_rotation	pelvis_tx	pelvis_ty	pelvis_tz	hip_flexion_r	hip_adduction_r	hip_rotation_r	knee_angle_r	knee_angle_r_beta	ankle_angle_r	subtalar_angle_r	mtp_angle_r	hip_flexion_l	hip_adduction_l	hip_rotation_l	knee_angle_l	knee_angle_l_beta	ankle_angle_l	subtalar_angle_l	mtp_angle_l	lumbar_extension	lumbar_bending	lumbar_rotation	arm_flex_r	arm_add_r	arm_rot_r	elbow_flex_r	pro_sup_r	wrist_flex_r	wrist_dev_r	arm_flex_l	arm_add_l	arm_rot_l	elbow_flex_l	pro_sup_l	wrist_flex_l	wrist_dev_l
      5.22500000	    -44.95516716	      0.38613586	      3.53711998	      0.08065289	      0.63923096	     -1.17486940	    106.04609368	    -40.48117681	     -2.96508152	     78.14731910	      1.36392802	     10.53917173	     -4.77429813	      0.00000000	    104.80396682	    -31.69601018	     -5.34121651	     72.37144147	      1.26311994	      8.28772830	      7.55310747	      0.00000000	      0.00000000	      0.00000000	      0.00000000	     44.99925643	    -15.00000140	     44.99925643	     75.00017585	     45.00000026	      0.00000000	      0.00000000	     44.99925643	    -15.00000140	     44.99925643	     75.00017585	     45.00000026	      0.00000000	      0.00000000
      5.23000000	    -45.28248970	      0.35586897	      3.64769146	      0.08061475	      0.63896889	     -1.17539797	    106.33933610	    -40.56674913	     -2.87466563	     78.04187447	      1.36208766	     10.66049337	     -4.68816074	      0.00000000	    105.09001783	    -31.49477405	     -5.24108827	     72.34418674	      1.26264425	      8.54158382	      8.04557009	      0.00000000	      0.00000000	      0.00000000	      0.00000000	     44.99926077	    -15.00000139	     44.99926077	     75.00017585	     45.00000026	      0.00000000	      0.00000000	     44.99926077	    -15.00000139	     44.99926077	     75.00017585	     45.00000026	      0.00000000	      0.00000000
      5.23500000	    -44.86245518	      0.40711570	      3.50620140	      0.08156119	      0.64099262	     -1.17519217	    105.62875580	    -40.49167875	     -3.17254721	     77.83553063	      1.35848628	     10.44760738	     -4.63587100	      0.00000000	    104.42194491	    -31.70919100	     -5.49741724	     72.16633047	      1.25954008	      8.31301562	      7.66044135	      0.00000000	      0.00000000	      0.00000000	      0.00000000	     44.99926525	    -15.00000137	     44.99926525	     75.00017585	     45.00000026	      0.00000000	      0.00000000	     44.99926525	    -15.00000137	     44.99926525	     75.00017585	     45.00000026	      0.00000000	      0.00000000
      5.24000000	    -44.99040823	      0.39572953	      3.62132940	      0.08183788	      0.64139825	     -1.17561296	    105.64996205	    -40.59616659	     -3.15661176	     77.71886681	      1.35645012	     10.62900508	     -4.64107915	      0.00000000	    104.40317205	    -31.53383705	     -5.48833541	     72.04130723	      1.25735801	      8.57405866	      8.18065983	      0.00000000	      0.00000000	      0.00000000	      0.00000000	     44.99926931	    -15.00000136	     44.99926931	     75.00017585	     45.00000026	      0.00000000	      0.00000000	     44.99926931	    -15.00000136	     44.99926931	     75.00017585	     45.00000026	      0.00000000	      0.00000000
      5.24500000	    -44.60928030	      0.44271625	      3.48878540	      0.08272885	      0.64332629	     -1.17551241	    104.97779837	    -40.52299858	     -3.42555286	     77.48475018	      1.35236401	     10.41641652	     -4.57982239	      0.00000000	    103.80176096	    -31.73609867	     -5.75045388	     71.90146979	      1.25491738	      8.35477776	      7.80027896	      0.00000000	      0.00000000	      0.00000000	      0.00000000	     44.99927359	    -15.00000135	     44.99927359	     75.00017585	     45.00000026	      0.00000000	      0.00000000	     44.99927359	    -15.00000135	     44.99927359	     75.00017585	     45.00000026	      0.00000000	      0.00000000
      5.25000000	    -44.87246349	      0.42557039	      3.59259993	      0.08285002	      0.64334379	     -1.17599182	    105.17859138	    -40.61585986	     -3.37301353	     77.37982016	      1.35053264	     10.53022173	     -4.48755817	      0.00000000	    103.96580902	    -31.54346198	     -5.69192033	     71.81851924	      1.25346962	      8.59182249	      8.21589864	      0.00000000	      0.00000000	      0.00000000	      0.00000000	     44.99927773	    -15.00000133	     44.99927773	     75.00017585	     45.00000026	      0.00000000	      0.00000000	     44.99927773	    -15.00000133	     44.99927773	     75.00017585	     45.00000026	      0.00000000	      0.00000000
      5.25500000	    -44.49923706	      0.48253675	      3.45389043	      0.08375190	      0.64526594	     -1.17587098	    104.52288313	    -40.53949348	     -3.64376590	     77.14651451	      1.34646068	     10.33109807	     -4.44198841	      0.00000000	    103.35954884	    -31.73729343	     -5.93646265	     71.67363535	      1.25094092	      8.36906173	      7.83883945	      0.00000000	      0.00000000	      0.00000000	      0.00000000	     44.99928188	    -15.00000132	     44.99928188	     75.00017585	     45.00000026	      0.00000000	      0.00000000	     44.99928188	    -15.00000132	     44.99928188	     75.00017585	     45.00000026	      0.00000000	      0.00000000
